<?xml version="1.0" encoding="utf-8"?>
<!-- Generator: Adobe Illustrator 24.1.1, SVG Export Plug-In . SVG Version: 6.00 Build 0)  -->
<svg version="1.1" id="Camada_1" xmlns="http://www.w3.org/2000/svg" xmlns:xlink="http://www.w3.org/1999/xlink" x="0px" y="0px"
	 viewBox="0 0 804.2 298.9" style="enable-background:new 0 0 804.2 298.9;" xml:space="preserve">
<style type="text/css">
	.st0{opacity:0.34;enable-background:new    ;}
	.st1{fill:#FFFFFF;}
	.st2{font-family:'Lato-Black';}
	.st3{font-size:60px;}
	.st4{letter-spacing:-3;}
	.st5{font-size:27.93px;}
	.st6{font-size:23.27px;}
	.st7{font-family:'Lato-Regular';}
	.st8{font-size:18.62px;}
	.st9{fill:none;}
	.st10{opacity:0.31;fill:#FFFFFF;enable-background:new    ;}
	.st11{font-family:'Lato-Hairline';}
	.st12{font-size:12px;}
</style>
<image style="overflow:visible;enable-background:new    ;" width="4223" height="1574" xlink:href="B010B151.png"  transform="matrix(0.1901 0 0 0.1901 2.1052 1.159668e-05)">
</image>
<rect y="0.1" class="st0" width="804.1" height="298.8"/>
<text transform="matrix(1 0 0 1 35.34 134.5)" class="st1 st2 st3">Buscando </text>
<text transform="matrix(1 0 0 1 313.37 134.5)" class="st1 st2 st3 st4">V</text>
<text transform="matrix(1 0 0 1 353.69 134.5)" class="st1 st2 st3">agas?</text>
<text transform="matrix(1 0 0 1 618.44 251.88)" class="st1 st2 st5">Estágios </text>
<text transform="matrix(1 0 0 1 729.16 251.88)" class="st1 st2 st6">&amp;</text>
<text transform="matrix(1 0 0 1 745.98 251.88)" class="st1 st2 st5"> </text>
<text transform="matrix(1 0 0 1 618.44 274.22)" class="st1 st7 st8">V</text>
<text transform="matrix(1 0 0 1 630.3 274.22)" class="st1 st7 st8">A</text>
<text transform="matrix(1 0 0 1 643.03 274.22)" class="st1 st7 st8">GAS BRASIL</text>
<path class="st1" d="M591.5,274.1c-0.6-0.6-1.2-1.3-1.8-1.8c-0.2-0.2-0.2-0.3,0-0.5c2.8-2.8,5.7-5.7,8.5-8.5c0.2-0.3,0.4-0.3,0.6,0
	c1.9,1.9,3.8,3.8,5.7,5.7c0.3,0.3,0.2,0.4,0,0.6c-1,1-2,2-3,3c-0.2,0.2-0.3,0.3-0.6,0c-0.7-0.8-1.5-1.5-2.2-2.3
	c-0.2-0.2-0.3-0.2-0.4,0c-1.2,1.2-2.4,2.5-3.7,3.7l-0.1,0.1L591.5,274.1z"/>
<path class="st1" d="M604.5,230.2c1,1,1.9,2,2.9,3c0.2,0.2,0.2,0.3,0,0.5c-1.9,1.9-3.8,3.8-5.7,5.7c-0.3,0.3-0.4,0.2-0.7,0
	c-2.7-2.8-5.5-5.5-8.2-8.2c-0.3-0.4-0.5-0.6-0.1-1h1.7c-0.3,0.5,0,0.8,0.3,1.1c2.1,2.1,4.2,4.2,6.3,6.3c0.3,0.3,0.4,0.3,0.7,0
	c1.3-1.3,2.5-2.6,3.8-3.8c0.4-0.4,0.4-0.4,0-0.8s-0.7-0.6-1-1s-0.5-0.3-0.7,0c-0.7,0.7-1.3,1.3-2,2c-0.4,0.4-0.5,0.4-0.8,0l-3.3-3.4
	c-0.1-0.1-0.3-0.2-0.2-0.4h1.6c0.6,0.5,1.1,1,1.6,1.5c0.9,0.9,0.6,0.9,1.5,0c0.5-0.6,1-1.1,1.6-1.5L604.5,230.2z"/>
<path class="st1" d="M597.3,230.2c0.5,0.6,1.1,1.2,1.7,1.7c0.8,0.8,1.5,1.5,2.3,2.3c0.8-0.9,1.7-1.7,2.5-2.5c0.2-0.2,0.3-0.2,0.5,0
	c0.5,0.5,1,1,1.5,1.5c0.2,0.2,0.2,0.3,0,0.4c-1.4,1.4-2.9,2.8-4.3,4.3c-0.2,0.2-0.3,0.1-0.4,0c-2.3-2.3-4.7-4.7-7-7
	c-0.4-0.4,0.2-0.5,0.2-0.7H597.3z"/>
<path class="st1" d="M606.8,267.2l-0.3-0.3c-3.3-3.3-6.6-6.6-9.9-9.9c-0.5-0.5-1-1-1.6-1.6c-0.2-0.2-0.2-0.3,0-0.4
	c1.1-1,2.1-2.1,3.2-3.1c0.3-0.3,0.4-0.1,0.5,0.1c2.6,2.6,5.2,5.2,7.8,7.8c0.3,0.3,0.4,0.3,0.7,0c0.7-0.8,1.5-1.5,2.2-2.2
	c0.2-0.2,0.3-0.2,0.5,0l3.1,3.1c0.2,0.2,0.2,0.3,0,0.5c-2,1.9-3.9,3.9-5.8,5.8C607,267.1,606.9,267.2,606.8,267.2z"/>
<path class="st1" d="M601.3,243.6c0.9-0.9,1.7-1.7,2.5-2.5c0.2-0.2,0.3-0.3,0.5,0c1,1.1,2.1,2.1,3.1,3.1c0.2,0.2,0.2,0.3,0,0.4
	c-2,2-3.9,3.9-5.9,5.9c-0.2,0.2-0.3,0.1-0.5-0.1l-4.7-4.7c-2.2-2.2-4.4-4.4-6.6-6.6c-0.2-0.2-0.3-0.4,0-0.6c1-1,2-2,3-3
	c0.2-0.2,0.3-0.2,0.5,0c2.5,2.5,5.1,5.1,7.6,7.6C601.1,243.4,601.2,243.5,601.3,243.6z"/>
<path class="st1" d="M609.6,235.3c1.1,1.1,2.3,2.3,3.4,3.4c0.2,0.2,0.1,0.3,0,0.4c-1.1,1.1-2.1,2.1-3.2,3.2c-0.2,0.2-0.3,0.1-0.4,0
	c-1-1.1-2.1-2.1-3.1-3.1c-0.2-0.2-0.2-0.3,0-0.5C607.4,237.6,608.5,236.5,609.6,235.3z"/>
<path class="st1" d="M591.1,272l7.2-7.2c0.2-0.2,0.3-0.2,0.5,0c1.4,1.4,2.8,2.8,4.2,4.2c0.2,0.2,0.2,0.3,0,0.5c-0.5,0.5-1,1-1.5,1.5
	c-0.2,0.2-0.3,0.2-0.5,0c-0.7-0.8-1.5-1.5-2.2-2.2c-0.2-0.2-0.3-0.2-0.5,0c-1.6,1.7-3.3,3.3-4.9,5c-0.3,0.3-0.4,0.2-0.6,0
	C592.2,273,591.7,272.5,591.1,272z"/>
<path class="st1" d="M598.5,253.4c0.1,0.1,0.1,0.2,0.2,0.3c2.6,2.6,5.2,5.2,7.8,7.8c0.3,0.3,0.4,0.3,0.7,0c0.7-0.8,1.5-1.5,2.2-2.2
	c0.2-0.2,0.3-0.2,0.5,0c0.5,0.5,1,1,1.5,1.5c0.2,0.2,0.2,0.3,0,0.4c-1.4,1.4-2.8,2.8-4.2,4.3c-0.2,0.2-0.3,0.1-0.5,0l-5.6-5.6
	l-4.3-4.3c-0.2-0.2-0.3-0.4,0-0.6c0.5-0.4,1-0.9,1.4-1.4C598.2,253.4,598.3,253.4,598.5,253.4z"/>
<path class="st1" d="M601.3,249.1l-0.2-0.2l-9.7-9.7c-0.2-0.2-0.2-0.3,0-0.5c0.5-0.4,1-0.9,1.4-1.4c0.3-0.3,0.4-0.2,0.6,0
	c2.5,2.6,5.1,5.1,7.6,7.6c0.3,0.3,0.4,0.3,0.7,0c0.7-0.8,1.5-1.5,2.2-2.2c0.2-0.2,0.3-0.2,0.5,0c0.5,0.5,1,1,1.5,1.5
	c0.2,0.1,0.2,0.2,0,0.4l-4.3,4.4C601.4,249,601.4,249.1,601.3,249.1z"/>
<path class="st1" d="M609.6,237c0.1,0,0.1,0.1,0.2,0.1c0.5,0.5,1,1.1,1.6,1.6c0.2,0.1,0.2,0.2,0,0.4c-0.5,0.5-1.1,1-1.6,1.6
	c-0.1,0.1-0.2,0.1-0.4,0l-1.6-1.6c-0.1-0.1-0.2-0.2,0-0.3l1.7-1.7C609.5,237.1,609.5,237,609.6,237z"/>
<path class="st1" d="M613,244.4l-7.7,7.7c-0.1,0.1-0.2,0.2-0.3,0.3s-0.2,0.3,0,0.5l0,0l1.5,1.5c0.1,0.2,0.4,0.2,0.5,0.1
	c0,0,0,0,0.1-0.1l0.3-0.3c1.9-1.9,3.7-3.7,5.6-5.6L613,244.4z"/>
<path class="st1" d="M613,248.4c-1.9,1.9-3.9,3.9-5.8,5.9c-0.3,0.3-0.4,0.3-0.7,0c-0.4-0.5-0.8-0.9-1.3-1.3c-0.3-0.2-0.3-0.4,0-0.6
	c2.6-2.6,5.2-5.2,7.8-7.8V243c-3.2,3.2-6.3,6.4-9.5,9.5c-0.2,0.2-0.2,0.3,0,0.5c1,1,2,2,3,3c0.2,0.3,0.4,0.2,0.6,0l5.9-5.9V248.4z"
	/>
<path class="st1" d="M613,253.9l-1.3,1.3c-0.2,0.2-0.1,0.3,0,0.4l1.3,1.3V253.9z"/>
<path class="st1" d="M613,265c-2.9,2.9-5.9,5.9-8.8,8.8c-0.1,0.1-0.2,0.1-0.3,0.3h1.6l0,0l7.4-7.4L613,265z"/>
<path class="st1" d="M613,270.5l-3.6,3.6h1.7c0.2-0.1,0.3-0.2,0.5-0.4l1.4-1.4L613,270.5z"/>
<path class="st1" d="M613.1,266.4l-7.3,7.3c-0.1,0.1-0.3,0.2-0.2,0.4h3.8c0.2-0.1,0.4-0.2,0.5-0.4l2.8-2.9l0.3-0.3v-4.1H613.1z"/>
<path class="st1" d="M586.3,230.2h-0.6v3.3l1.8,1.8c0.7-0.6,1.3-1.3,2-2L586.3,230.2z"/>
<path class="st1" d="M590.8,244.3c-1-1-2-2-3-3c-0.2-0.3-0.3-0.2-0.6,0l-1.5,1.6v1.6l1.6-1.6c0.2-0.2,0.3-0.2,0.5,0
	c0.5,0.5,0.9,1,1.4,1.4c0.2,0.2,0.2,0.3,0,0.5l-3.5,3.5v1.6c1.7-1.7,3.4-3.4,5.1-5.1C591.1,244.7,591.1,244.5,590.8,244.3z"/>
<path class="st1" d="M591,233.2c-0.4-0.4-0.8-0.8-1.2-1.1c-0.6-0.6-1.3-1.2-1.8-1.9h-1.7c0,0.3,0.2,0.4,0.3,0.5
	c0.8,0.8,1.6,1.6,2.4,2.4c0.4,0.4,0.4,0.4,0,0.7s-0.7,0.7-1,1.1s-0.4,0.3-0.7,0c-0.5-0.5-1-1-1.5-1.5v1.8l1.6,1.6
	c0.2,0.2,0.3,0.1,0.4,0c1-1.1,2.1-2.1,3.2-3.2C591.1,233.4,591.1,233.4,591,233.2z"/>
<path class="st1" d="M596.4,249.7l-3.2-3.1l-0.2-0.2l-0.2,0.2l-7.1,7.1v1.6l7.1-7.1c0.2-0.2,0.3-0.2,0.5,0c0.5,0.6,1.1,1.1,1.7,1.7
	l-2.5,2.4c-2.3,2.3-4.6,4.6-6.8,6.9v1.6c3.6-3.6,7.1-7.1,10.7-10.7C596.6,250,596.6,249.9,596.4,249.7z"/>
<path class="st1" d="M596.4,260.7c-1-1-2-2-3-3c-0.2-0.2-0.3-0.2-0.6,0c-1.4,1.5-2.9,2.9-4.3,4.3c-0.9,0.9-1.8,1.8-2.8,2.8v1.7
	c0-0.1,0.1-0.2,0.1-0.2l7-7c0.1-0.1,0.2-0.1,0.3-0.2l0.2,0.2c0.5,0.5,1,1,1.5,1.5c0.2,0.2,0.2,0.3,0,0.5c-2.3,2.3-4.6,4.6-7,7
	c-0.2,0.2-0.3,0.2-0.5,0c-0.5-0.5-1-1-1.5-1.5c-0.1-0.1-0.1-0.1-0.1-0.2v1.7l1.8,1.8l0.1-0.1c2.9-2.9,5.8-5.8,8.8-8.7
	C596.6,261,596.6,260.9,596.4,260.7z"/>
<path class="st1" d="M585.7,274.1h2.6c-0.8-0.8-1.5-1.5-2.3-2.3c-0.1-0.1-0.2-0.2-0.3-0.2V274.1z"/>
<polygon class="st1" points="585.7,254.6 585.7,260.5 595.5,250 592.9,247.4 "/>
<path class="st1" d="M611.8,230.2l-1.2,1.2c-0.2,0.2-0.1,0.3,0.1,0.4c0.7,0.7,1.4,1.4,2.1,2.1c0.1,0.1,0.2,0.1,0.3,0.1v-3.9
	L611.8,230.2z"/>
<polygon class="st1" points="585.7,265.7 585.7,267.5 587.4,269.1 595.6,260.9 593,258.5 "/>
<polygon class="st1" points="585.7,244.1 585.7,249.1 590.2,244.5 587.6,241.9 "/>
<rect x="43.5" y="279.4" class="st9" width="373.8" height="19.4"/>
<text transform="matrix(1 0 0 1 43.5102 288.0857)" class="st10 st11 st12">Foto por Brooke Cagle em Unsplash</text>
</svg>
